<svg width="15" height="17" viewBox="0 0 15 17" fill="none" xmlns="http://www.w3.org/2000/svg">
<path d="M10.1667 12.6667V13.5C10.1667 14.8807 9.04738 16 7.66667 16C6.28596 16 5.16667 14.8807 5.16667 13.5V12.6667M10.1667 12.6667H5.16667M10.1667 12.6667H13.1588C13.4775 12.6667 13.6377 12.6667 13.7667 12.6231C14.0133 12.54 14.2062 12.3464 14.2894 12.0998C14.3331 11.9702 14.3331 11.8096 14.3331 11.4883C14.3331 11.3477 14.3329 11.2774 14.3219 11.2104C14.3012 11.0837 14.252 10.9636 14.1771 10.8593C14.1376 10.8043 14.0873 10.754 13.9882 10.6549L13.6636 10.3302C13.5588 10.2255 13.5 10.0834 13.5 9.93534V6.83333C13.5 3.61167 10.8883 0.999992 7.66667 1C4.44501 1.00001 1.83333 3.61168 1.83333 6.83333V9.93536C1.83333 10.0835 1.77437 10.2255 1.66964 10.3302L1.34505 10.6548C1.24563 10.7542 1.19587 10.8042 1.15625 10.8594C1.08138 10.9636 1.03179 11.0837 1.011 11.2104C1 11.2774 1 11.3477 1 11.4883C1 11.8096 1 11.9702 1.04371 12.0998C1.12688 12.3463 1.32066 12.54 1.56722 12.6231C1.6963 12.6667 1.85585 12.6667 2.17463 12.6667H5.16667" stroke="white" stroke-linecap="round" stroke-linejoin="round"/>
</svg>
