<svg width="979" height="467" viewBox="0 0 979 467" fill="none" xmlns="http://www.w3.org/2000/svg">
<path d="M3 178.004L47.126 127.997L81.8429 133.002L142.866 86.002L296.783 265.989V288.008L402.855 368.002L424.444 355.994L597.154 464" stroke="black" stroke-width="5" stroke-linecap="round" stroke-linejoin="round"/>
<path d="M710.734 413.999L788.64 363L764.236 357L788.64 311.998L842.143 302.997L851.53 259.999L928.499 206.997L942.577 212.999L965.105 85.9978L902.21 154.999L856.217 168.998L843.092 217.499L690.098 312.992V329.992L658.169 355.995L624.378 340.994C624.378 340.994 520.66 384.493 518.306 383.993" stroke="black" stroke-width="5" stroke-linecap="round" stroke-linejoin="round"/>
<path d="M840.272 339.991L892.833 310.004L902.218 348.991L976.368 315.997" stroke="black" stroke-width="5" stroke-linecap="round" stroke-linejoin="round"/>
<path d="M840.272 445.999L901.269 413.992L960.42 429.995" stroke="black" stroke-width="5" stroke-linecap="round" stroke-linejoin="round"/>
<path d="M25.5374 388.001L82.7915 413.993V388.001L194.479 445.999" stroke="black" stroke-width="5" stroke-linecap="round" stroke-linejoin="round"/>
<path d="M236.733 379L186.043 324.01H131.585L87.4836 268.009L162.109 281.993L136.277 236.003L137.225 145.998" stroke="black" stroke-width="5" stroke-linecap="round" stroke-linejoin="round"/>
<path d="M231.093 283.99L346.549 417L350.293 388.001L439.469 445.999" stroke="black" stroke-width="5" stroke-linecap="round" stroke-linejoin="round"/>
<path d="M403.803 323L471.39 230.009L532.388 194.007H580.257L676.945 66.991L830.887 136.009L856.22 111.005L910.429 145.998" stroke="black" stroke-width="5" stroke-linecap="round" stroke-linejoin="round"/>
<path d="M546.464 310.004L597.154 247L690.073 236.002L731.055 287.415L710.738 187.005L813.99 205.993L763.3 167.994L750.147 140.005L676.945 66.991" stroke="black" stroke-width="5" stroke-linecap="round" stroke-linejoin="round"/>
<path d="M632.42 125.472L583.078 95.9903L546.464 50L463.877 3L403.803 71.0085L368.138 66.9912L335.268 135H307.115L300.077 162.001L264.886 156.008L225.602 182.768" stroke="black" stroke-width="5" stroke-linecap="round" stroke-linejoin="round"/>
<path d="M350.296 217.499C348.039 203.129 344.588 188.925 339.97 174.999C337.624 175.5 300.08 162.001 300.08 162.001" stroke="black" stroke-width="5" stroke-linecap="round" stroke-linejoin="round"/>
<path d="M385.034 257.999L392.547 230.01L424.443 217.497L419.751 188.498L363.446 145.998L472.313 174.997L464.801 135L479.826 125.999L463.877 3L521.131 92.873V109.996L566.181 136.997L570.873 167.994" stroke="black" stroke-width="5" stroke-linecap="round" stroke-linejoin="round"/>
</svg>
