<svg width="17" height="15" viewBox="0 0 17 15" fill="none" xmlns="http://www.w3.org/2000/svg">
<path d="M1 2.625V11.4C1 12.3101 1 12.7648 1.18165 13.1124C1.34144 13.4182 1.59622 13.6673 1.90982 13.8231C2.26599 14 2.73247 14 3.66406 14H13.3358C14.2673 14 14.7332 14 15.0893 13.8231C15.4029 13.6673 15.6586 13.4183 15.8183 13.1126C16 12.765 16 12.3099 16 11.3998L16 5.22482C16 4.31473 16 3.85969 15.8183 3.51208C15.6586 3.20632 15.4031 2.95791 15.0895 2.80211C14.733 2.625 14.2666 2.625 13.3332 2.625H8.49991M1 2.625H8.49991M1 2.625C1 1.72754 1.74618 1 2.66665 1H5.72871C6.13635 1 6.34066 1 6.53247 1.0449C6.70253 1.08471 6.86481 1.15053 7.01393 1.23962C7.18206 1.34009 7.32644 1.48085 7.6145 1.76172L8.49991 2.625" stroke="black" stroke-linecap="round" stroke-linejoin="round"/>
</svg>
