<svg width="11" height="17" viewBox="0 0 11 17" fill="none" xmlns="http://www.w3.org/2000/svg">
<path d="M1 4.16596C1.26261 3.36247 1.74405 2.64687 2.3908 2.09806C3.03754 1.54924 3.82425 1.18893 4.66449 1.05657C5.50474 0.924198 6.36609 1.02522 7.15216 1.34831C7.93823 1.67141 8.61823 2.20417 9.11842 2.88749C9.6186 3.57081 9.9189 4.3779 9.98576 5.22003C10.0526 6.06215 9.88309 6.90609 9.49693 7.65879C9.11076 8.41149 8.52316 9.04394 7.79779 9.48534C7.07242 9.92675 6.23824 10.1604 5.38748 10.1604V11.305M5.44491 15.8853V15.9998L5.33005 16V15.8853H5.44491Z" stroke="black" stroke-linecap="round" stroke-linejoin="round"/>
</svg>
