<svg width="17" height="17" viewBox="0 0 17 17" fill="none" xmlns="http://www.w3.org/2000/svg">
<path d="M1 8.15427V13.0629C1 14.091 1 14.6055 1.20436 14.9981C1.38413 15.3435 1.67076 15.6241 2.02356 15.8001C2.42425 16 2.94906 16 3.9971 16H13.0029C14.0509 16 14.575 16 14.9757 15.8001C15.3285 15.6241 15.6161 15.3435 15.7958 14.9981C16 14.6058 16 14.0922 16 13.0661V8.15427C16 7.66382 15.9996 7.41846 15.9387 7.19025C15.8847 6.988 15.7961 6.79661 15.6762 6.62366C15.5408 6.4285 15.3527 6.26666 14.9757 5.9437L10.4757 2.08868C9.77576 1.48906 9.42579 1.1894 9.03192 1.07536C8.68487 0.974879 8.31495 0.974879 7.96789 1.07536C7.57432 1.18931 7.22486 1.48869 6.52597 2.08741L2.02448 5.9437C1.64748 6.26666 1.45941 6.4285 1.3241 6.62366C1.20418 6.79661 1.11489 6.988 1.06091 7.19025C1 7.41846 1 7.66382 1 8.15427Z" stroke="black" stroke-linecap="round" stroke-linejoin="round"/>
</svg>
